<?xml version="1.0" encoding="UTF-8"?>
<!DOCTYPE svg PUBLIC "-//W3C//DTD SVG 1.1//EN" "http://www.w3.org/Graphics/SVG/1.1/DTD/svg11.dtd">
<svg version="1.1" xmlns="http://www.w3.org/2000/svg" xmlns:xlink="http://www.w3.org/1999/xlink" x="0" y="0" width="455.31" height="93.44" viewBox="0, 0, 455.31, 93.44">
  <g id="Layer_1">
    <g>
      <path d="M58.355,60.967 L53.235,60.967 L53.235,39.055 Q53.235,32.203 51.052,28.966 Q48.868,25.728 44.576,25.728 Q42.317,25.728 40.322,26.556 Q38.326,27.384 36.632,28.89 Q34.938,30.396 33.658,32.467 Q32.378,34.538 31.7,37.022 L31.7,60.967 L26.58,60.967 L26.58,39.055 Q26.58,32.053 24.472,28.89 Q22.363,25.728 17.996,25.728 Q13.554,25.728 10.09,28.815 Q6.626,31.902 5.12,36.947 L5.12,60.967 L0,60.967 L0,21.737 L4.668,21.737 L4.668,30.622 Q7.078,26.104 10.993,23.582 Q14.909,21.059 19.653,21.059 Q24.622,21.059 27.596,23.845 Q30.571,26.631 31.248,31.149 Q36.745,21.059 46.383,21.059 Q49.696,21.059 51.993,22.264 Q54.289,23.469 55.682,25.69 Q57.075,27.911 57.715,31.036 Q58.355,34.161 58.355,38.001 z" fill="#FFFFFF"/>
      <path d="M79.062,61.72 Q76.276,61.72 73.904,60.779 Q71.532,59.838 69.763,58.181 Q67.993,56.524 67.015,54.303 Q66.036,52.082 66.036,49.522 Q66.036,46.962 67.24,44.778 Q68.445,42.594 70.629,41.013 Q72.812,39.432 75.824,38.566 Q78.836,37.7 82.451,37.7 Q85.462,37.7 88.55,38.227 Q91.637,38.754 94.046,39.733 L94.046,36.194 Q94.046,30.999 91.11,27.949 Q88.173,24.9 82.978,24.9 Q79.966,24.9 76.803,26.104 Q73.641,27.309 70.403,29.568 L68.596,26.18 Q76.201,21.059 83.354,21.059 Q90.733,21.059 94.95,25.201 Q99.167,29.342 99.167,36.646 L99.167,54.341 Q99.167,56.449 101.049,56.449 L101.049,60.967 Q99.769,61.193 99.091,61.193 Q97.134,61.193 96.042,60.214 Q94.95,59.235 94.875,57.503 L94.724,54.416 Q92.013,57.955 87.91,59.838 Q83.806,61.72 79.062,61.72 z M80.267,57.805 Q84.258,57.805 87.608,56.299 Q90.959,54.793 92.691,52.308 Q93.369,51.63 93.707,50.84 Q94.046,50.049 94.046,49.371 L94.046,42.971 Q91.486,41.992 88.738,41.465 Q85.99,40.938 83.128,40.938 Q77.707,40.938 74.318,43.197 Q70.93,45.456 70.93,49.145 Q70.93,50.952 71.645,52.534 Q72.361,54.115 73.603,55.282 Q74.846,56.449 76.577,57.127 Q78.309,57.805 80.267,57.805 z" fill="#FFFFFF"/>
      <path d="M123.262,61.72 Q118.669,61.72 114.301,60.214 Q109.934,58.708 106.772,55.847 L109.106,52.383 Q112.419,55.094 115.845,56.449 Q119.271,57.805 123.186,57.805 Q127.93,57.805 130.754,55.884 Q133.577,53.964 133.577,50.425 Q133.577,48.769 132.824,47.677 Q132.071,46.585 130.603,45.757 Q129.135,44.929 126.914,44.289 Q124.692,43.649 121.756,42.971 Q118.367,42.143 115.883,41.314 Q113.398,40.486 111.779,39.432 Q110.16,38.378 109.369,36.834 Q108.579,35.291 108.579,32.956 Q108.579,30.02 109.746,27.761 Q110.913,25.502 112.908,24.034 Q114.904,22.565 117.577,21.812 Q120.25,21.059 123.262,21.059 Q127.78,21.059 131.469,22.528 Q135.159,23.996 137.418,26.406 L134.933,29.417 Q132.749,27.159 129.624,26.029 Q126.499,24.9 123.111,24.9 Q121.078,24.9 119.346,25.314 Q117.614,25.728 116.297,26.631 Q114.979,27.535 114.226,28.928 Q113.473,30.321 113.473,32.203 Q113.473,33.785 114,34.764 Q114.527,35.742 115.732,36.458 Q116.937,37.173 118.781,37.738 Q120.626,38.303 123.262,38.905 Q127.027,39.808 129.888,40.712 Q132.749,41.616 134.669,42.82 Q136.589,44.025 137.568,45.757 Q138.547,47.489 138.547,49.974 Q138.547,55.395 134.406,58.558 Q130.264,61.72 123.262,61.72 z" fill="#FFFFFF"/>
      <path d="M179.885,60.967 L174.765,60.967 L174.765,39.056 Q174.765,32.354 172.468,29.041 Q170.172,25.728 165.729,25.728 Q163.546,25.728 161.4,26.594 Q159.254,27.46 157.371,28.966 Q155.489,30.472 154.096,32.505 Q152.703,34.538 152.025,36.947 L152.025,60.967 L146.905,60.967 L146.905,6 L152.025,6 L152.025,30.622 Q154.359,26.18 158.501,23.62 Q162.642,21.059 167.461,21.059 Q170.85,21.059 173.184,22.302 Q175.518,23.544 177.024,25.766 Q178.53,27.987 179.208,31.112 Q179.885,34.236 179.885,38.001 z" fill="#FFFFFF"/>
      <path d="M210.004,61.72 Q205.336,61.72 201.458,59.386 Q197.58,57.052 195.396,53.362 L195.396,60.967 L190.803,60.967 L190.803,6 L195.924,6 L195.924,29.945 Q198.559,25.954 202.249,23.507 Q205.938,21.059 210.832,21.059 Q214.974,21.059 218.249,22.791 Q221.525,24.523 223.821,27.422 Q226.118,30.321 227.36,33.973 Q228.603,37.625 228.603,41.465 Q228.603,45.606 227.172,49.296 Q225.741,52.986 223.256,55.734 Q220.772,58.482 217.346,60.101 Q213.92,61.72 210.004,61.72 z M208.799,57.202 Q212.037,57.202 214.71,55.884 Q217.383,54.567 219.303,52.345 Q221.223,50.124 222.315,47.301 Q223.407,44.477 223.407,41.465 Q223.407,38.378 222.391,35.517 Q221.374,32.655 219.529,30.434 Q217.684,28.213 215.087,26.895 Q212.489,25.577 209.402,25.577 Q207.068,25.577 205.035,26.368 Q203.002,27.159 201.27,28.514 Q199.538,29.869 198.182,31.639 Q196.827,33.408 195.924,35.366 L195.924,47.564 Q196.225,49.597 197.542,51.367 Q198.86,53.136 200.705,54.416 Q202.55,55.696 204.696,56.449 Q206.842,57.202 208.799,57.202 z" fill="#FFFFFF"/>
      <path d="M237.488,6 L242.608,6 L242.608,52.082 Q242.608,54.266 243.813,55.508 Q245.017,56.75 247.201,56.75 Q248.029,56.75 249.159,56.524 Q250.288,56.299 251.267,55.922 L252.171,60.063 Q250.74,60.666 248.669,61.042 Q246.599,61.419 245.093,61.419 Q241.554,61.419 239.521,59.423 Q237.488,57.428 237.488,53.814 z" fill="#FFFFFF"/>
      <path d="M274.459,61.72 Q270.167,61.72 266.628,60.101 Q263.089,58.482 260.491,55.696 Q257.893,52.91 256.463,49.221 Q255.032,45.531 255.032,41.465 Q255.032,37.324 256.5,33.634 Q257.969,29.945 260.566,27.159 Q263.164,24.373 266.703,22.716 Q270.242,21.059 274.459,21.059 Q278.675,21.059 282.252,22.716 Q285.829,24.373 288.426,27.159 Q291.024,29.945 292.492,33.634 Q293.961,37.324 293.961,41.465 Q293.961,45.531 292.53,49.221 Q291.099,52.91 288.502,55.696 Q285.904,58.482 282.327,60.101 Q278.751,61.72 274.459,61.72 z M260.227,41.54 Q260.227,44.853 261.357,47.677 Q262.486,50.501 264.406,52.647 Q266.327,54.793 268.924,55.997 Q271.522,57.202 274.459,57.202 Q277.395,57.202 279.993,55.96 Q282.591,54.717 284.549,52.571 Q286.506,50.425 287.636,47.564 Q288.765,44.703 288.765,41.39 Q288.765,38.152 287.636,35.253 Q286.506,32.354 284.549,30.208 Q282.591,28.062 279.993,26.82 Q277.395,25.577 274.459,25.577 Q271.522,25.577 268.962,26.82 Q266.402,28.062 264.444,30.246 Q262.486,32.429 261.357,35.328 Q260.227,38.227 260.227,41.54 z" fill="#FFFFFF"/>
      <path d="M299.834,41.239 Q299.834,37.098 301.264,33.408 Q302.695,29.719 305.293,26.97 Q307.891,24.222 311.505,22.641 Q315.119,21.059 319.486,21.059 Q325.058,21.059 329.2,23.582 Q333.341,26.104 335.449,30.396 L330.48,31.978 Q328.823,28.966 325.849,27.271 Q322.875,25.577 319.261,25.577 Q316.249,25.577 313.651,26.782 Q311.053,27.987 309.133,30.057 Q307.213,32.128 306.121,34.989 Q305.029,37.851 305.029,41.239 Q305.029,44.552 306.159,47.489 Q307.288,50.425 309.246,52.571 Q311.204,54.717 313.801,55.96 Q316.399,57.202 319.336,57.202 Q321.218,57.202 323.063,56.675 Q324.908,56.148 326.489,55.207 Q328.07,54.266 329.2,53.061 Q330.329,51.856 330.781,50.501 L335.826,52.007 Q334.998,54.115 333.416,55.884 Q331.835,57.654 329.689,58.972 Q327.543,60.289 324.945,61.005 Q322.348,61.72 319.562,61.72 Q315.27,61.72 311.656,60.101 Q308.041,58.482 305.406,55.659 Q302.77,52.835 301.302,49.145 Q299.834,45.456 299.834,41.239 z" fill="#FFFFFF"/>
      <path d="M371.893,60.967 L357.436,40.863 L349.003,48.694 L349.003,60.967 L343.883,60.967 L343.883,6 L349.003,6 L349.003,43.347 L371.065,21.812 L376.863,21.812 L360.825,37.851 L377.465,60.967 z" fill="#FFFFFF"/>
    </g>
    <path d="M416.549,-0 L455.31,38.762 L417.549,76.523 L378.787,37.762 L416.549,-0 z" fill="#FFFFFF"/>
    <g>
      <path d="M249.881,86.44 L248.249,86.44 L248.249,79.456 Q248.249,77.224 247.589,76.216 Q246.929,75.208 245.561,75.208 Q244.841,75.208 244.121,75.472 Q243.401,75.736 242.789,76.216 Q242.177,76.696 241.697,77.356 Q241.217,78.016 241.001,78.784 L241.001,86.44 L239.369,86.44 L239.369,73.936 L240.857,73.936 L240.857,76.768 Q241.625,75.4 243.053,74.56 Q244.481,73.72 246.161,73.72 Q247.193,73.72 247.913,74.104 Q248.633,74.488 249.065,75.184 Q249.497,75.88 249.689,76.888 Q249.881,77.896 249.881,79.12 z" fill="#FFFFFF" fill-opacity="0.75"/>
      <path d="M258.761,86.68 Q257.393,86.68 256.253,86.164 Q255.113,85.648 254.273,84.748 Q253.433,83.848 252.965,82.672 Q252.497,81.496 252.497,80.152 Q252.497,78.832 252.965,77.668 Q253.433,76.504 254.261,75.628 Q255.089,74.752 256.241,74.236 Q257.393,73.72 258.737,73.72 Q260.105,73.72 261.245,74.236 Q262.385,74.752 263.201,75.64 Q264.017,76.528 264.473,77.68 Q264.929,78.832 264.929,80.128 Q264.929,80.32 264.929,80.512 Q264.929,80.704 264.905,80.776 L254.201,80.776 Q254.273,81.784 254.669,82.636 Q255.065,83.488 255.689,84.112 Q256.313,84.736 257.117,85.084 Q257.921,85.432 258.833,85.432 Q259.433,85.432 260.033,85.264 Q260.633,85.096 261.137,84.808 Q261.641,84.52 262.049,84.1 Q262.457,83.68 262.673,83.176 L264.089,83.56 Q263.801,84.256 263.273,84.82 Q262.745,85.384 262.049,85.804 Q261.353,86.224 260.513,86.452 Q259.673,86.68 258.761,86.68 z M263.369,79.528 Q263.297,78.52 262.901,77.692 Q262.505,76.864 261.893,76.264 Q261.281,75.664 260.477,75.328 Q259.673,74.992 258.761,74.992 Q257.849,74.992 257.033,75.328 Q256.217,75.664 255.605,76.264 Q254.993,76.864 254.621,77.704 Q254.249,78.544 254.177,79.528 z" fill="#FFFFFF" fill-opacity="0.75"/>
      <path d="M282.857,73.936 L284.465,73.936 L279.089,86.44 L277.745,86.44 L275.057,80.056 L272.393,86.44 L271.049,86.44 L265.673,73.936 L267.257,73.936 L271.817,84.76 L274.193,79.048 L272.057,73.96 L273.425,73.96 L275.057,78.04 L276.689,73.96 L278.081,73.96 L275.945,79.048 L278.321,84.76 z" fill="#FFFFFF" fill-opacity="0.75"/>
      <path d="M291.041,85.336 L299.489,75.16 L291.233,75.16 L291.233,73.936 L301.265,73.936 L301.265,75.04 L292.841,85.216 L301.241,85.216 L301.241,86.44 L291.041,86.44 z" fill="#FFFFFF" fill-opacity="0.75"/>
      <path d="M308.969,86.68 Q307.601,86.68 306.461,86.164 Q305.321,85.648 304.481,84.748 Q303.641,83.848 303.173,82.672 Q302.705,81.496 302.705,80.152 Q302.705,78.832 303.173,77.668 Q303.641,76.504 304.469,75.628 Q305.297,74.752 306.449,74.236 Q307.601,73.72 308.945,73.72 Q310.313,73.72 311.453,74.236 Q312.593,74.752 313.409,75.64 Q314.225,76.528 314.681,77.68 Q315.137,78.832 315.137,80.128 Q315.137,80.32 315.137,80.512 Q315.137,80.704 315.113,80.776 L304.409,80.776 Q304.481,81.784 304.877,82.636 Q305.273,83.488 305.897,84.112 Q306.521,84.736 307.325,85.084 Q308.129,85.432 309.041,85.432 Q309.641,85.432 310.241,85.264 Q310.841,85.096 311.345,84.808 Q311.849,84.52 312.257,84.1 Q312.665,83.68 312.881,83.176 L314.297,83.56 Q314.009,84.256 313.481,84.82 Q312.953,85.384 312.257,85.804 Q311.561,86.224 310.721,86.452 Q309.881,86.68 308.969,86.68 z M313.577,79.528 Q313.505,78.52 313.109,77.692 Q312.713,76.864 312.101,76.264 Q311.489,75.664 310.685,75.328 Q309.881,74.992 308.969,74.992 Q308.057,74.992 307.241,75.328 Q306.425,75.664 305.813,76.264 Q305.201,76.864 304.829,77.704 Q304.457,78.544 304.385,79.528 z" fill="#FFFFFF" fill-opacity="0.75"/>
      <path d="M320.801,86.68 Q319.913,86.68 319.157,86.38 Q318.401,86.08 317.837,85.552 Q317.273,85.024 316.961,84.316 Q316.649,83.608 316.649,82.792 Q316.649,81.976 317.033,81.28 Q317.417,80.584 318.113,80.08 Q318.809,79.576 319.769,79.3 Q320.729,79.024 321.881,79.024 Q322.841,79.024 323.825,79.192 Q324.809,79.36 325.577,79.672 L325.577,78.544 Q325.577,76.888 324.641,75.916 Q323.705,74.944 322.049,74.944 Q321.089,74.944 320.081,75.328 Q319.073,75.712 318.041,76.432 L317.465,75.352 Q319.889,73.72 322.169,73.72 Q324.521,73.72 325.865,75.04 Q327.209,76.36 327.209,78.688 L327.209,84.328 Q327.209,85 327.809,85 L327.809,86.44 Q327.401,86.512 327.185,86.512 Q326.561,86.512 326.213,86.2 Q325.865,85.888 325.841,85.336 L325.793,84.352 Q324.929,85.48 323.621,86.08 Q322.313,86.68 320.801,86.68 z M321.185,85.432 Q322.457,85.432 323.525,84.952 Q324.593,84.472 325.145,83.68 Q325.361,83.464 325.469,83.212 Q325.577,82.96 325.577,82.744 L325.577,80.704 Q324.761,80.392 323.885,80.224 Q323.009,80.056 322.097,80.056 Q320.369,80.056 319.289,80.776 Q318.209,81.496 318.209,82.672 Q318.209,83.248 318.437,83.752 Q318.665,84.256 319.061,84.628 Q319.457,85 320.009,85.216 Q320.561,85.432 321.185,85.432 z" fill="#FFFFFF" fill-opacity="0.75"/>
      <path d="M330.809,68.92 L332.441,68.92 L332.441,83.608 Q332.441,84.304 332.825,84.7 Q333.209,85.096 333.905,85.096 Q334.169,85.096 334.529,85.024 Q334.889,84.952 335.201,84.832 L335.489,86.152 Q335.033,86.344 334.373,86.464 Q333.713,86.584 333.233,86.584 Q332.105,86.584 331.457,85.948 Q330.809,85.312 330.809,84.16 z" fill="#FFFFFF" fill-opacity="0.75"/>
      <path d="M340.409,86.68 Q339.521,86.68 338.765,86.38 Q338.009,86.08 337.445,85.552 Q336.881,85.024 336.569,84.316 Q336.257,83.608 336.257,82.792 Q336.257,81.976 336.641,81.28 Q337.025,80.584 337.721,80.08 Q338.417,79.576 339.377,79.3 Q340.337,79.024 341.489,79.024 Q342.449,79.024 343.433,79.192 Q344.417,79.36 345.185,79.672 L345.185,78.544 Q345.185,76.888 344.249,75.916 Q343.313,74.944 341.657,74.944 Q340.697,74.944 339.689,75.328 Q338.681,75.712 337.649,76.432 L337.073,75.352 Q339.497,73.72 341.777,73.72 Q344.129,73.72 345.473,75.04 Q346.817,76.36 346.817,78.688 L346.817,84.328 Q346.817,85 347.417,85 L347.417,86.44 Q347.009,86.512 346.793,86.512 Q346.169,86.512 345.821,86.2 Q345.473,85.888 345.449,85.336 L345.401,84.352 Q344.537,85.48 343.229,86.08 Q341.921,86.68 340.409,86.68 z M340.793,85.432 Q342.065,85.432 343.133,84.952 Q344.201,84.472 344.753,83.68 Q344.969,83.464 345.077,83.212 Q345.185,82.96 345.185,82.744 L345.185,80.704 Q344.369,80.392 343.493,80.224 Q342.617,80.056 341.705,80.056 Q339.977,80.056 338.897,80.776 Q337.817,81.496 337.817,82.672 Q337.817,83.248 338.045,83.752 Q338.273,84.256 338.669,84.628 Q339.065,85 339.617,85.216 Q340.169,85.432 340.793,85.432 z" fill="#FFFFFF" fill-opacity="0.75"/>
      <path d="M360.857,86.44 L359.225,86.44 L359.225,79.456 Q359.225,77.224 358.565,76.216 Q357.905,75.208 356.537,75.208 Q355.817,75.208 355.097,75.472 Q354.377,75.736 353.765,76.216 Q353.153,76.696 352.673,77.356 Q352.193,78.016 351.977,78.784 L351.977,86.44 L350.345,86.44 L350.345,73.936 L351.833,73.936 L351.833,76.768 Q352.601,75.4 354.029,74.56 Q355.457,73.72 357.137,73.72 Q358.169,73.72 358.889,74.104 Q359.609,74.488 360.041,75.184 Q360.473,75.88 360.665,76.888 Q360.857,77.896 360.857,79.12 z" fill="#FFFFFF" fill-opacity="0.75"/>
      <path d="M369.473,86.68 Q368.177,86.68 367.073,86.14 Q365.969,85.6 365.177,84.712 Q364.385,83.824 363.941,82.66 Q363.497,81.496 363.497,80.224 Q363.497,78.904 363.929,77.716 Q364.361,76.528 365.117,75.64 Q365.873,74.752 366.917,74.236 Q367.961,73.72 369.209,73.72 Q370.793,73.72 372.017,74.548 Q373.241,75.376 373.937,76.552 L373.937,68.92 L375.569,68.92 L375.569,84.328 Q375.569,85 376.145,85 L376.145,86.44 Q375.785,86.512 375.569,86.512 Q374.993,86.512 374.561,86.14 Q374.129,85.768 374.129,85.24 L374.129,84.016 Q373.385,85.24 372.113,85.96 Q370.841,86.68 369.473,86.68 z M369.833,85.24 Q370.433,85.24 371.117,85 Q371.801,84.76 372.401,84.34 Q373.001,83.92 373.421,83.356 Q373.841,82.792 373.937,82.144 L373.937,78.28 Q373.697,77.632 373.241,77.068 Q372.785,76.504 372.197,76.072 Q371.609,75.64 370.937,75.4 Q370.265,75.16 369.617,75.16 Q368.609,75.16 367.793,75.592 Q366.977,76.024 366.389,76.732 Q365.801,77.44 365.489,78.352 Q365.177,79.264 365.177,80.224 Q365.177,81.232 365.537,82.144 Q365.897,83.056 366.521,83.74 Q367.145,84.424 367.997,84.832 Q368.849,85.24 369.833,85.24 z" fill="#FFFFFF" fill-opacity="0.75"/>
    </g>
  </g>
</svg>
