<?xml version="1.0" encoding="utf-8"?>
<!-- Generator: Adobe Illustrator 19.1.0, SVG Export Plug-In . SVG Version: 6.00 Build 0)  -->
<svg version="1.1" id="Layer_1" xmlns="http://www.w3.org/2000/svg" xmlns:xlink="http://www.w3.org/1999/xlink" x="0px" y="0px"
	 viewBox="0 0 286 100" style="enable-background:new 0 0 286 100;" xml:space="preserve">
<style type="text/css">
	.st0{fill:#FFFFFF;}
</style>
<g>
	<path class="st0" d="M37.3,76.1h18.2H82V51.9v-6.2C72.2,61.7,56.2,72,37.3,76.1L37.3,76.1z"/>
	<path class="st0" d="M29.9,23.9H82c-6.2,26.4-26.9,46.2-52.2,52.2V23.9z"/>
	<g>
		<g>
			<path class="st0" d="M95.4,57.2h6.1c0.2,1.7,0.9,3,2,3.6c1.2,0.8,2.8,1.2,4.8,1.2c1.8,0,3.2-0.3,4.1-1c0.9-0.6,1.4-1.6,1.4-2.8
				c0-1.9-2.6-3.4-7.8-4.5l-0.2-0.1l-0.7-0.2c-3-0.6-4.9-1.3-5.9-2c-1.2-0.6-2-1.6-2.4-2.8c-0.6-1-0.9-2.4-0.9-4c0-2.8,1-5.1,3-6.7
				c2-1.6,4.8-2.3,8.6-2.3c3.5,0,6.3,0.8,8.2,2.4c2,1.8,3,4.1,3.1,7h-3.5c-1.3,0-2.3-0.6-2.9-1.8c-0.3-0.6-0.7-1.1-1.2-1.5
				c-1-0.8-2.5-1.1-4.3-1.1c-1.7,0-3,0.3-3.7,1c-0.9,0.6-1.3,1.5-1.3,2.7c0,1.6,1.7,2.7,5,3.5c1,0.3,1.7,0.5,2.2,0.5
				c1,0.3,2,0.6,2.7,0.8c0.8,0.2,1.4,0.4,1.9,0.5c0.8,0.3,1.6,0.7,2.4,1c1.2,0.7,2.1,1.6,2.7,2.7c0.6,1.2,1,2.5,1,4
				c0,3.1-1,5.6-3.1,7.3c-2.1,1.6-5,2.4-8.9,2.4c-3.9,0-6.9-0.8-8.9-2.5C96.7,63,95.5,60.5,95.4,57.2z"/>
		</g>
		<g>
			<path class="st0" d="M133.2,36.6h4.9L149,66.5h-6.5l-2-6.2h-11.6l-1.9,6.2h-6.5l9.9-27.9C130.8,37.3,131.8,36.6,133.2,36.6z
				 M134.6,42.6l-4.2,12.7h8.3L134.6,42.6z"/>
		</g>
		<g>
			<path class="st0" d="M154.8,66.5l-10.3-29.9h6.9l6.3,22.3l5.8-20.1c0.3-1.5,1.3-2.3,3-2.3h4.4l-10.2,29.9H154.8z"/>
		</g>
		<g>
			<path class="st0" d="M173.3,66.5V39.8c0-0.9,0.3-1.6,0.9-2.2c0.6-0.6,1.3-0.9,2.2-0.9H195v5.1h-15.6v6.4H191v2
				c0,0.9-0.3,1.6-0.9,2.2c-0.6,0.6-1.3,0.9-2.2,0.9h-8.5V61H195v5.6H173.3z"/>
		</g>
		<g>
			<path class="st0" d="M198.9,66.5V39.8c0-0.9,0.3-1.6,0.9-2.2c0.6-0.6,1.3-0.9,2.2-0.9h8.6c4.6,0,8,1.2,10.3,3.6
				c2.3,2.5,3.4,6.3,3.4,11.3c0,2.7-0.4,5.1-1.2,7.2c-0.9,2.2-2.1,3.9-3.6,5c-1.3,1-2.6,1.7-4.1,2.1c-1.4,0.4-3.5,0.6-6.3,0.6H198.9
				z M204.9,61.1h5c2.8,0,4.9-0.8,6.3-2.3c1.3-1.4,1.9-3.8,1.9-7.3c0-3.4-0.6-5.8-1.8-7.4c-1.2-1.6-3-2.3-5.6-2.3h-5.7V61.1z"/>
		</g>
		<g>
			<path class="st0" d="M227,51.6c0-4.9,1.3-8.7,3.8-11.6c2.7-2.8,6.3-4.3,10.7-4.3c4.3,0,7.9,1.4,10.7,4.3
				c2.6,2.9,3.9,6.7,3.9,11.6c0,4.8-1.3,8.6-3.9,11.5c-2.7,2.8-6.2,4.2-10.7,4.2c-4.5,0-8.1-1.4-10.7-4.2
				C228.3,60.3,227,56.4,227,51.6z M233.2,51.6c0,3.4,0.7,5.9,2.2,7.6c1.4,1.8,3.5,2.7,6.2,2.7c2.6,0,4.7-0.9,6.2-2.7
				c1.5-1.9,2.3-4.4,2.3-7.6c0-3.2-0.8-5.8-2.3-7.7c-1.5-1.8-3.6-2.7-6.2-2.7c-2.7,0-4.7,0.9-6.2,2.7
				C233.9,45.6,233.2,48.2,233.2,51.6z"/>
		</g>
	</g>
</g>
</svg>
